<svg xmlns="http://www.w3.org/2000/svg" xmlns:xlink="http://www.w3.org/1999/xlink" width="62" height="62" viewBox="0 0 62 62">
    <defs>
        <filter id="9sww2n8psa" width="144%" height="144%" x="-22%" y="-14%" filterUnits="objectBoundingBox">
            <feMorphology in="SourceAlpha" radius="1" result="shadowSpreadOuter1"/>
            <feOffset dy="4" in="shadowSpreadOuter1" result="shadowOffsetOuter1"/>
            <feGaussianBlur in="shadowOffsetOuter1" result="shadowBlurOuter1" stdDeviation="4"/>
            <feColorMatrix in="shadowBlurOuter1" values="0 0 0 0 0.454901961 0 0 0 0 0.109803922 0 0 0 0 0.858823529 0 0 0 1 0"/>
        </filter>
        <rect id="zkhspap2vb" width="50" height="50" x="0" y="0" rx="12"/>
    </defs>
    <g fill="none" fill-rule="evenodd">
        <g>
            <g>
                <g transform="translate(-304 -1155) translate(310 1157)">
                    <use fill="#000" filter="url(#9sww2n8psa)" xlink:href="#zkhspap2vb"/>
                    <use fill="#C1A1F1" xlink:href="#zkhspap2vb"/>
                </g>
                <g>
                    <path d="M0 0H23.529V23.529H0z" transform="translate(-304 -1155) translate(310 1157) translate(13.235 12.402)"/>
                    <path fill="#FFF" d="M6.323 23.063c-.576-.623-.58-1.598-.01-2.227l8.484-9.073L6.313 2.69c-.578-.625-.574-1.606.009-2.226C6.592.17 6.969.002 7.364 0c.394-.002.772.162 1.047.453l8.486 9.073 1.049 1.119c.582.626.582 1.61 0 2.237l-1.05 1.116-8.485 9.074c-.273.294-.652.46-1.047.457-.395-.001-.772-.17-1.042-.466h.001z" transform="translate(-304 -1155) translate(310 1157) translate(13.235 12.402) matrix(0 -1 -1 0 23.897 23.897)"/>
                </g>
            </g>
        </g>
    </g>
</svg>
