<svg xmlns="http://www.w3.org/2000/svg" width="171" height="23" viewBox="0 0 171 23">
    <g fill="none" transform="translate(-.063)">
        <circle cx="168" cy="15" r="3" fill="#23C7C6"/>
        <g fill="#9F5DF1">
            <path d="M13.719 12.905L11.374 3.954 8.082 3.954 5.737 12.905 3.492 3.954 0 3.954 3.991 16.759 7.408 16.759 9.728 8.28 12.047 16.759 15.44 16.759 19.456 3.954 15.963 3.954zM43.713 5.321c-1.025-1.07-2.452-1.664-3.935-1.641-3.343 0-6.111 2.884-6.111 6.689 0 3.804 2.768 6.663 6.11 6.663 1.484.024 2.91-.571 3.936-1.64v1.392h3.117V3.954h-3.117V5.32zm-3.436 8.703c-.919-.037-1.784-.44-2.403-1.117-.618-.677-.939-1.574-.89-2.489 0-2.088 1.472-3.68 3.293-3.68 1.82 0 3.286 1.641 3.286 3.68.07 1.889-1.393 3.484-3.286 3.58v.026zM75.97 3.63c-1.758.024-3.432.752-4.645 2.02-1.214 1.267-1.866 2.967-1.809 4.719v1.243c.045.867-.394 1.688-1.14 2.135-.747.447-1.68.447-2.427 0-.747-.447-1.186-1.268-1.14-2.135V7.037h3.26V3.929h-3.26V.696h-3.3v10.717c-.073 1.517.499 2.995 1.575 4.07 1.077 1.074 2.56 1.646 4.081 1.574 1.646.053 3.229-.631 4.315-1.865 1.188 1.193 2.804 1.865 4.49 1.865 1.756-.009 3.435-.724 4.655-1.983 1.22-1.259 1.88-2.955 1.83-4.705.052-1.756-.605-3.458-1.825-4.725-1.22-1.267-2.899-1.993-4.66-2.014zm0 10.419c-1.746 0-3.161-1.492-3.161-3.655 0-2.164 1.415-3.73 3.161-3.73s3.168 1.541 3.168 3.73c0 2.188-1.422 3.655-3.168 3.655zM92.782 14.173c-1.537.016-2.876-1.041-3.212-2.536h9.697c.474-5.073-2.67-8.007-6.46-8.007-3.677.065-6.614 3.073-6.58 6.739-.03 3.656 2.912 6.647 6.58 6.688 3.192 0 5.462-1.765 6.235-4.351h-3.517c-.566.963-1.625 1.53-2.743 1.467zm0-7.658c1.525-.06 2.883.959 3.248 2.436h-6.416c.383-1.432 1.68-2.43 3.168-2.436z"/>
            <path d="M111.62 3.954L107.878 3.954 105.509 7.857 103.114 3.954 99.373 3.954 103.588 10.145 99.098 16.759 102.815 16.759 105.509 12.408 108.178 16.759 111.894 16.759 107.404 10.145zM120.013 3.655c-1.475-.007-2.89.586-3.916 1.641V3.954h-3.168v18.499h3.318v-6.912c1 .972 2.343 1.517 3.741 1.516 3.367 0 6.111-2.909 6.111-6.713 0-3.805-2.719-6.689-6.086-6.689zm-.474 10.32c-1.82 0-3.292-1.642-3.292-3.656-.085-1.9 1.386-3.512 3.292-3.605.922.028 1.794.427 2.416 1.106.623.68.943 1.58.89 2.499 0 2.113-1.485 3.655-3.306 3.655zM133.757 3.63c-3.68.062-6.62 3.07-6.585 6.739-.031 3.658 2.915 6.65 6.585 6.688 3.192 0 5.462-1.765 6.235-4.351h-3.517c-.555.964-1.604 1.54-2.718 1.492-1.538.014-2.878-1.042-3.218-2.536h9.697c.449-5.098-2.688-8.032-6.48-8.032zm-3.193 5.321c.381-1.433 1.68-2.432 3.168-2.436 1.514-.044 2.854.97 3.217 2.436h-6.385zM147.937 14.074c-1.821 0-3.293-1.666-3.293-3.68 0-2.015 1.472-3.73 3.293-3.73 1.118.014 2.14.633 2.669 1.616h3.51c-.742-2.884-3.118-4.625-6.18-4.625-1.78-.014-3.492.692-4.742 1.957-1.25 1.265-1.933 2.981-1.892 4.757-.046 1.774.636 3.49 1.888 4.753 1.252 1.262 2.966 1.961 4.747 1.935 3.118 0 5.462-1.715 6.204-4.625h-3.51c-.518 1.008-1.558 1.642-2.694 1.642zM54.606 13.95c-.639.036-1.263-.201-1.715-.653-.453-.45-.69-1.073-.654-1.71v-4.55h3.261V3.929h-3.261V.696h-3.293v10.717c-.074 1.518.5 2.997 1.577 4.072 1.079 1.075 2.562 1.646 4.085 1.572.998.016 1.984-.217 2.869-.677-.502-1.05-.837-2.173-.992-3.326-.434.595-1.14.931-1.877.895zM26.814 3.63c-1.065-.002-2.1.348-2.944.995V0h-3.33v16.784h3.318v-7.46c-.026-.662.23-1.305.705-1.769.476-.464 1.125-.707 1.79-.667.658-.054 1.307.188 1.77.659.462.47.69 1.122.624 1.777v7.46h3.292v-7.46c0-3.431-2.107-5.694-5.225-5.694zM162.828 14.297v-.18c.009-.274.04-.546.093-.814h-.043c-.088.086-.184.163-.287.23-.398.26-.865.394-1.341.385-.639.037-1.263-.2-1.716-.652-.452-.45-.69-1.073-.654-1.71v-4.52h3.25V3.93h-3.262V.696h-3.286v10.717c-.074 1.518.499 2.997 1.577 4.072 1.078 1.075 2.562 1.646 4.085 1.572.78.007 1.555-.134 2.282-.416-.439-.705-.68-1.514-.698-2.344z"/>
        </g>
    </g>
</svg>
